<?xml version="1.0" encoding="UTF-8"?>
<svg width="282px" height="51px" viewBox="0 0 282 51" version="1.1" xmlns="http://www.w3.org/2000/svg" xmlns:xlink="http://www.w3.org/1999/xlink">
    <title>hasnik_logo</title>
    <g id="Page-1" stroke="none" stroke-width="1" fill="none" fill-rule="evenodd">
        <g id="hasnik_logo" transform="translate(0.961951, 0.589268)" fill="#231F20" fill-rule="nonzero">
            <g id="K" transform="translate(229.000000, 0.942439)">
                <path d="M51.2282927,48.4682927 L51.2282927,47.795122 C49.9717073,47.7053659 48.8385366,47.5482927 47.8287805,47.3239025 C46.8190244,47.0995122 46.022439,46.875122 45.4390244,46.6507317 C45.3043903,46.6058537 45.035122,46.4263415 44.6312195,46.1121951 C44.2273171,45.7980488 43.7560976,45.4278049 43.217561,45.0014634 C42.6790244,44.575122 42.1180488,44.0926829 41.5346342,43.5541464 C40.9512195,43.0156098 40.435122,42.4770732 39.9863415,41.9385366 C38.1014634,39.8292683 36.1380488,37.6302439 34.0960976,35.3414634 C32.0541464,33.0526829 30.1356098,30.8985366 28.3404878,28.8790244 C26.5453659,26.8595122 24.9970732,25.0980488 23.6956098,23.5946342 C22.3941464,22.0912195 21.5639024,21.115122 21.2048781,20.6663415 C21.9678049,19.8585366 22.8092683,18.9946342 23.7292683,18.0746342 C24.6492683,17.1546342 25.5917073,16.2009756 26.5565854,15.2136585 C27.5214634,14.2263415 28.497561,13.2390244 29.4848781,12.2517073 C30.4721951,11.2643902 31.4370732,10.3443902 32.3795122,9.49170732 C34.8029268,7.24780488 37.1814634,5.27317073 39.515122,3.56780488 C41.8487805,1.86243903 44.16,0.897560976 46.4487805,0.673170732 L46.4487805,0 L28.4078049,0 L28.4078049,0.673170732 C29.5746342,0.852682927 30.6068293,1.23414634 31.5043903,1.81756098 C32.4019512,2.40097561 32.8507317,3.34341464 32.8507317,4.64487805 C32.8507317,5.40780488 32.5478049,6.26048781 31.9419512,7.20292683 C31.3360976,8.14536586 30.6517073,9.06536586 29.8887805,9.96292683 C28.8117073,11.1297561 27.5326829,12.4985366 26.0517073,14.0692683 C24.5707317,15.64 23.0785366,17.1658537 21.575122,18.6468293 C20.0717073,20.1278049 18.6356098,21.4629268 17.2668293,22.6521951 C15.8980488,23.8414634 14.8097561,24.6829268 14.0019512,25.1765854 C14.0019512,22.6634146 14.0019512,20.5990244 14.0019512,18.9834146 C14.0019512,17.3229268 14.0019512,15.9092683 14.0019512,14.742439 C14.0019512,13.5756098 14.0131707,12.5434146 14.0356098,11.6458537 C14.0580488,10.7482927 14.0917073,9.78341464 14.1365854,8.75121952 C14.1814634,6.86634147 14.4170732,5.40780488 14.8434146,4.37560976 C15.2697561,3.34341464 15.7970732,2.56926829 16.4253659,2.05317073 C17.0536585,1.53707317 17.7717073,1.20048781 18.5795122,1.04341463 C19.3873171,0.886341464 20.217561,0.76292683 21.0702439,0.673170732 L21.0702439,0 L0.20195122,0 L0.20195122,0.673170732 C1.36878049,0.807804878 2.40097561,1.05463415 3.29853659,1.41365854 C4.19609756,1.77268293 4.95902439,2.33365854 5.58731708,3.09658537 C6.08097561,3.72487805 6.38390244,4.75707317 6.49609756,6.19317073 C6.60829269,7.6292683 6.66439025,9.2 6.66439025,10.9053659 L6.66439025,24.0321951 C6.66439025,25.2439024 6.66439025,26.5453659 6.66439025,27.9365854 C6.66439025,29.2829268 6.66439025,30.6068293 6.66439025,31.9082927 C6.66439025,33.1648781 6.65317073,34.3317073 6.63073171,35.4087805 C6.60829269,36.4858537 6.59707317,37.3385366 6.59707317,37.9668293 C6.59707317,38.6848781 6.58585366,39.4365854 6.56341464,40.2219512 C6.54097561,41.0073171 6.49609756,41.7478049 6.42878049,42.4434147 C6.36146342,43.1390244 6.26048781,43.7560976 6.12585366,44.2946342 C5.99121951,44.8331708 5.81170732,45.2370732 5.58731708,45.5063415 C5.04878049,46.1346342 4.26341464,46.6282927 3.23121951,46.9873171 C2.19902439,47.3463415 1.12195122,47.6156098 2.84217094e-14,47.795122 L2.84217094e-14,48.4682927 L21.6087805,48.4682927 L21.6087805,47.795122 C21.16,47.7502439 20.6326829,47.6717073 20.0268293,47.5595122 C19.4209756,47.4473171 18.8039024,47.2902439 18.1756098,47.0882927 C17.5473171,46.8863415 16.9639024,46.6282927 16.4253659,46.3141464 C15.8868293,46 15.4604878,45.6185366 15.1463415,45.1697561 C14.697561,44.5863415 14.4058537,43.7336586 14.2712195,42.6117073 C14.1365854,41.4897561 14.0468293,40.2780488 14.0019512,38.9765854 C13.9570732,37.4956098 13.9346342,35.7229268 13.9346342,33.6585366 C13.9346342,31.5492683 13.9346342,29.3278049 13.9346342,26.9941464 C14.0692683,26.635122 14.1926829,26.3770732 14.3048781,26.22 C14.4170732,26.0629268 14.6526829,25.9843903 15.0117073,25.9843903 C15.3258537,25.9843903 15.6960976,26.1414634 16.122439,26.4556098 C16.5487805,26.7697561 17.3453659,27.577561 18.5121951,28.8790244 C21.2946342,31.9307317 23.9760976,34.9487805 26.5565854,37.9331707 C29.1370732,40.917561 31.8634146,44.0702439 34.7356098,47.3912195 C35.0048781,47.7053659 35.2517073,47.9409756 35.4760976,48.0980488 C35.7004878,48.255122 35.902439,48.3785366 36.0819512,48.4682927 L51.2282927,48.4682927 Z" id="Path"></path>
            </g>
            <g id="I" transform="translate(206.134634, 0.942439)">
                <path d="M20.3970732,48.4682927 L20.3970732,47.795122 C19.4546342,47.7053659 18.4,47.4585366 17.2331707,47.0546342 C16.0663415,46.6507317 15.2136585,46.0673171 14.675122,45.3043903 C14.3160976,44.8107317 14.1141463,43.9580488 14.0692683,42.7463415 C14.0243903,41.5346342 14.0019512,40.2780488 14.0019512,38.9765854 L14.0019512,23.7629268 C14.0019512,22.3717073 14.0019512,21.0926829 14.0019512,19.9258537 C14.0019512,18.7141463 14.0019512,17.5473171 14.0019512,16.4253659 C14.0019512,15.3034146 14.0131707,14.1926829 14.0356098,13.0931707 C14.0580488,11.9936585 14.0692683,10.8829268 14.0692683,9.76097561 C14.1141463,8.72878049 14.1478049,7.6292683 14.1702439,6.46243903 C14.1926829,5.29560976 14.4058537,4.33073171 14.8097561,3.56780488 C15.3931707,2.49073171 16.2234146,1.77268293 17.3004878,1.41365854 C18.377561,1.05463415 19.3873171,0.807804878 20.3297561,0.673170732 L20.3297561,0 L0.20195122,0 L0.20195122,0.673170732 C1.36878049,0.807804878 2.41219512,1.04341463 3.33219512,1.38 C4.25219512,1.71658537 5.02634147,2.26634146 5.65463415,3.02926829 C5.92390244,3.34341464 6.12585366,3.78097561 6.26048781,4.34195122 C6.39512195,4.90292683 6.49609756,5.53121951 6.56341464,6.22682927 C6.63073171,6.92243903 6.66439025,7.67414634 6.66439025,8.48195122 C6.66439025,9.2897561 6.66439025,10.097561 6.66439025,10.9053659 L6.66439025,24.0321951 C6.66439025,25.2439024 6.66439025,26.5453659 6.66439025,27.9365854 C6.66439025,29.2829268 6.65317073,30.5956098 6.63073171,31.8746342 C6.60829269,33.1536586 6.58585366,34.3317073 6.56341464,35.4087805 C6.54097561,36.4858537 6.5297561,37.3385366 6.5297561,37.9668293 C6.5297561,38.6848781 6.51853659,39.4141464 6.49609756,40.1546342 C6.47365854,40.895122 6.42878049,41.6019512 6.36146342,42.275122 C6.29414634,42.9482927 6.20439025,43.5317073 6.09219512,44.0253659 C5.98,44.5190244 5.81170732,44.9004878 5.58731708,45.1697561 C4.91414634,45.9326829 4.09512195,46.5160976 3.1302439,46.92 C2.16536585,47.3239025 1.12195122,47.6156098 0,47.795122 L0,48.4682927 L20.3970732,48.4682927 Z" id="Path"></path>
            </g>
            <g id="N" transform="translate(148.259512, 0.942439)">
                <path d="M54.7287805,0.673170732 L54.7287805,0 L38.0341464,0 L38.0341464,0.673170732 C40.1882927,0.987317074 41.837561,1.53707317 42.9819512,2.32243903 C44.1263415,3.10780488 44.9229268,4.12878049 45.3717073,5.38536586 C45.7307317,6.32780488 45.9326829,7.61804878 45.977561,9.25609756 C46.022439,10.8941463 46.0448781,12.6107317 46.0448781,14.4058537 L46.0448781,37.2936586 L14.1365854,0 L0.471219512,0 L0.471219512,0.673170732 C1.18926829,0.76292683 1.94097561,0.908780488 2.72634146,1.11073171 C3.51170732,1.31268293 4.24097561,1.64926829 4.91414634,2.12048781 C5.58731708,2.59170732 6.17073171,3.24243903 6.66439025,4.07268293 C7.15804878,4.90292683 7.47219513,5.96878049 7.60682927,7.27024391 C7.65170732,8.57170732 7.67414634,9.67121952 7.67414634,10.5687805 C7.67414634,11.4214634 7.67414634,12.2517073 7.67414634,13.0595122 C7.67414634,13.8673171 7.67414634,14.697561 7.67414634,15.5502439 C7.67414634,16.4029268 7.67414634,17.48 7.67414634,18.7814634 C7.67414634,21.7882927 7.65170732,24.6043903 7.60682927,27.2297561 C7.56195122,29.855122 7.49463415,32.1326829 7.40487805,34.062439 C7.31512195,36.6204878 7.18048781,38.8195122 7.00097561,40.6595122 C6.82146342,42.4995122 6.41756098,43.8907317 5.7892683,44.8331708 C5.16097561,45.8204878 4.30829268,46.5273171 3.23121951,46.9536586 C2.15414634,47.38 1.07707317,47.6604878 0,47.795122 L0,48.4682927 L16.56,48.4682927 L16.56,47.795122 C14.72,47.5707317 13.2726829,47.2004878 12.2180488,46.6843903 C11.1634146,46.1682927 10.3892683,45.3941464 9.89560976,44.3619512 C9.44682927,43.4643903 9.16634147,42.0956098 9.05414635,40.2556098 C8.94195122,38.4156098 8.88585366,36.3512195 8.88585366,34.062439 L8.88585366,5.65463415 C11.937561,9.06536586 14.8321951,12.3639024 17.5697561,15.5502439 C20.3073171,18.7365854 23.1009756,22.0014634 25.9507317,25.3448781 C28.8004878,28.6882927 31.7960976,32.2 34.937561,35.88 C38.0790244,39.56 41.5570732,43.5990244 45.3717073,47.9970732 C45.8204878,48.4458537 46.2243903,48.6702439 46.5834147,48.6702439 C46.8078049,48.6702439 46.9760976,48.6141464 47.0882927,48.5019512 C47.2004878,48.3897561 47.2565854,48.2439025 47.2565854,48.0643903 C47.2565854,46.7629268 47.2565854,45.3043903 47.2565854,43.6887805 C47.2565854,42.0731707 47.2453659,40.4463415 47.2229268,38.8082927 C47.2004878,37.1702439 47.1892683,35.5658537 47.1892683,33.995122 C47.1892683,32.3795122 47.1892683,30.9434146 47.1892683,29.6868293 C47.1892683,26.68 47.2229268,23.8639024 47.2902439,21.2385366 C47.357561,18.6131707 47.4360976,16.3356098 47.5258537,14.4058537 C47.6156098,12.3414634 47.7053659,10.4004878 47.795122,8.58292683 C47.8848781,6.76536586 48.0868293,5.52 48.4009756,4.84682927 C48.9395122,3.54536586 49.7136586,2.58048781 50.7234147,1.95219512 C51.7331708,1.32390244 53.0682927,0.897560976 54.7287805,0.673170732 Z" id="Path"></path>
            </g>
            <g id="S" transform="translate(112.279024, 0.201951)">
                <path d="M33.3219512,35.9473171 C33.3219512,32.7609756 32.4804878,30.1019512 30.797561,27.9702439 C29.1146342,25.8385366 26.7473171,24.2117073 23.6956098,23.0897561 C22.8429268,22.7756098 22.0239024,22.4839024 21.2385366,22.2146342 C20.4531707,21.9453659 19.6790244,21.6873171 18.9160976,21.4404878 C18.1531707,21.1936585 17.3790244,20.9356098 16.5936585,20.6663415 C15.8082927,20.3970732 14.9668293,20.0829268 14.0692683,19.7239024 C11.7804878,18.8712195 9.91804878,17.7268293 8.48195122,16.2907317 C7.04585366,14.8546342 6.32780488,12.9473171 6.32780488,10.5687805 C6.32780488,9.04292683 6.58585366,7.68536586 7.10195122,6.49609756 C7.61804878,5.30682927 8.33609756,4.30829268 9.25609756,3.50048781 C10.1760976,2.69268293 11.2531707,2.08682927 12.4873171,1.68292683 C13.7214634,1.27902439 15.0341463,1.07707317 16.4253659,1.07707317 C18.1756098,1.07707317 19.7687805,1.43609756 21.2048781,2.15414634 C22.6409756,2.87219512 23.92,3.80341464 25.0419512,4.94780488 C26.1639025,6.09219512 27.1512195,7.39365854 28.0039025,8.85219513 C28.8565854,10.3107317 29.5521951,11.7804878 30.0907317,13.2614634 L30.8312195,13.2614634 L30.8312195,0.807804878 L30.0907317,0.807804878 C29.7317073,1.34634146 29.3390244,1.88487805 28.9126829,2.42341464 C28.4863415,2.96195122 28.2058537,3.23121951 28.0712195,3.23121951 C28.0263415,3.23121951 27.7682927,3.06292683 27.2970732,2.72634146 C26.8258537,2.3897561 26.1302439,2.0195122 25.2102439,1.61560976 C24.2902439,1.21170732 23.1121951,0.841463415 21.6760976,0.504878049 C20.24,0.168292683 18.5121951,0 16.4926829,0 C14.3385366,0 12.2853659,0.280487805 10.3331707,0.841463415 C8.38097561,1.40243902 6.66439025,2.26634146 5.18341464,3.43317073 C3.70243903,4.6 2.52439024,6.05853659 1.64926829,7.80878049 C0.774146342,9.55902439 0.336585366,11.6458537 0.336585366,14.0692683 C0.336585366,15.5053659 0.583414634,16.8629268 1.07707317,18.1419512 C1.57073171,19.4209756 2.22146342,20.5878049 3.02926829,21.642439 C3.83707317,22.6970732 4.7795122,23.6170732 5.85658537,24.402439 C6.93365854,25.1878049 8.05560976,25.8048781 9.22243903,26.2536585 C10.2546342,26.657561 11.1409756,26.9829268 11.8814634,27.2297561 C12.6219512,27.4765854 13.34,27.7234146 14.0356098,27.9702439 C14.7312195,28.2170732 15.4829268,28.475122 16.2907317,28.7443903 C17.0985366,29.0136585 18.0409756,29.3502439 19.1180488,29.7541464 C20.195122,30.1580488 21.2048781,30.6068293 22.1473171,31.1004878 C23.0897561,31.5941464 23.9087805,32.1887805 24.6043903,32.8843903 C25.3,33.58 25.8497561,34.3990244 26.2536585,35.3414634 C26.657561,36.2839025 26.8595122,37.3834147 26.8595122,38.64 C26.8595122,41.7365854 25.8273171,44.1936586 23.7629268,46.0112195 C21.6985366,47.8287805 19.0058537,48.737561 15.6848781,48.737561 C14.5180488,48.737561 13.3063415,48.5356098 12.0497561,48.1317073 C10.7931707,47.7278049 9.78341464,47.3239025 9.02048781,46.92 C8.25756098,46.5160976 7.46097561,45.9326829 6.63073171,45.1697561 C5.80048781,44.4068293 5.01512195,43.5204878 4.27463415,42.5107317 C3.53414634,41.5009756 2.8497561,40.4239025 2.22146342,39.2795122 C1.59317073,38.135122 1.07707317,36.9570732 0.673170732,35.7453659 L-1.42108547e-14,35.7453659 L0.20195122,49.1414634 L0.807804878,49.1414634 C1.16682927,48.6478049 1.57073171,48.1317073 2.0195122,47.5931708 C2.46829268,47.0546342 2.76,46.7853659 2.89463415,46.7853659 C3.02926829,46.7853659 3.35463415,46.942439 3.87073171,47.2565854 C4.38682927,47.5707317 5.16097561,47.9185366 6.19317073,48.3 C7.22536586,48.6814634 8.52682927,49.0068293 10.097561,49.2760976 C11.6682927,49.5453659 13.5531707,49.68 15.7521951,49.68 C18.3102439,49.68 20.6663415,49.3882927 22.8204878,48.8048781 C24.9746342,48.2214634 26.8258537,47.3239025 28.3741464,46.1121951 C29.922439,44.9004878 31.1341464,43.4419512 32.0092683,41.7365854 C32.8843903,40.0312195 33.3219512,38.1014634 33.3219512,35.9473171 Z" id="Path"></path>
            </g>
            <g id="A" transform="translate(57.883902, 0.000000)">
                <path d="M32.0429268,49.4107317 L32.0429268,48.737561 C32.177561,48.737561 32.5029268,48.6926829 33.0190244,48.6029269 C33.535122,48.5131708 34.0736586,48.3560976 34.6346342,48.1317073 C35.1956098,47.9073171 35.6892683,47.5931708 36.1156098,47.1892683 C36.5419512,46.7853659 36.755122,46.2692683 36.755122,45.6409756 C36.755122,45.2370732 36.6317073,44.575122 36.3848781,43.655122 C36.1380488,42.735122 35.7902439,41.6131707 35.3414634,40.2892683 C34.8926829,38.9653659 34.3765854,37.4956098 33.7931707,35.88 C33.2097561,34.2643903 32.5814634,32.5814634 31.9082927,30.8312195 L14.0019512,30.8312195 C13.3287805,32.5365854 12.6780488,34.1634146 12.0497561,35.7117073 C11.4214634,37.26 10.7931707,38.8195122 10.1648781,40.3902439 C9.22243903,42.8136586 8.75121952,44.5190244 8.75121952,45.5063415 C8.75121952,46.0897561 8.93073171,46.5721951 9.2897561,46.9536586 C9.64878049,47.335122 10.1087805,47.6492683 10.6697561,47.8960976 C11.2307317,48.1429269 11.8365854,48.322439 12.4873171,48.4346342 C13.1380488,48.5468293 13.755122,48.6478049 14.3385366,48.737561 L14.3385366,49.4107317 L0,49.4107317 L0,48.6702439 C1.16682927,48.5356098 2.16536585,48.2214634 2.99560976,47.7278049 C3.82585366,47.2341464 4.30829268,46.897561 4.44292683,46.7180488 C4.75707317,46.4039025 5.27317073,45.6634147 5.99121951,44.4965854 C6.7092683,43.3297561 7.58439025,41.6019512 8.61658537,39.3131707 C9.55902439,37.2039025 10.6136585,34.8029268 11.7804878,32.1102439 C12.9473171,29.417561 14.1478049,26.6463415 15.3819512,23.7965854 C16.6160976,20.9468293 17.8390244,18.0746342 19.0507317,15.18 C20.262439,12.2853659 21.4068293,9.58146342 22.4839024,7.06829269 L21.8107317,5.58731708 C22.6185366,5.22829269 23.3478049,4.80195122 23.9985366,4.30829268 C24.6492683,3.81463415 25.2214634,3.29853659 25.715122,2.76 C26.2087805,2.22146342 26.6239025,1.70536585 26.9604878,1.21170732 C27.2970732,0.718048781 27.555122,0.314146342 27.7346342,-7.10542736e-15 L28.2731707,-7.10542736e-15 C29.6643903,3.72487805 30.9882927,7.25902439 32.2448781,10.602439 C33.5014634,13.9458537 34.7019512,17.1658537 35.8463415,20.262439 C36.9907317,23.3590244 38.1014634,26.3546342 39.1785366,29.2492683 C40.2556098,32.1439025 41.3326829,35.0048781 42.4097561,37.8321951 C42.9034147,39.2234147 43.3634147,40.3790244 43.7897561,41.2990244 C44.2160976,42.2190244 44.6985366,43.262439 45.2370732,44.4292683 C45.3268293,44.6087805 45.5287805,44.9229268 45.8429268,45.3717073 C46.1570732,45.8204878 46.5721951,46.2804878 47.0882927,46.7517073 C47.6043903,47.2229268 48.2439025,47.6380488 49.0068293,47.9970732 C49.7697561,48.3560976 50.6673171,48.5580488 51.6995122,48.6029269 L51.6995122,49.4107317 L32.0429268,49.4107317 Z M23.2243903,8.61658537 C22.955122,9.2 22.562439,10.12 22.0463415,11.3765854 C21.5302439,12.6331707 20.8907317,14.1590244 20.1278049,15.9541463 C19.3648781,17.7492683 18.5234146,19.78 17.6034146,22.0463415 C16.6834146,24.3126829 15.6848781,26.7697561 14.6078049,29.417561 L31.3697561,29.417561 C30.6068293,27.3980488 29.8326829,25.3785366 29.0473171,23.3590244 C28.2619512,21.3395122 27.4990244,19.3985366 26.7585366,17.5360976 C26.0180488,15.6736585 25.3448781,13.9682927 24.7390244,12.42 C24.1331707,10.8717073 23.6282927,9.60390244 23.2243903,8.61658537 Z" id="Shape"></path>
            </g>
            <g id="H" transform="translate(0.000000, 0.942439)">
                <path d="M54.257561,48.4682927 L54.257561,47.795122 C53.0907317,47.6604878 52.0136586,47.4136586 51.0263415,47.0546342 C50.0390244,46.6956098 49.2536586,46.0673171 48.6702439,45.1697561 C48.4009756,44.7658537 48.2326829,44.0141464 48.1653659,42.9146342 C48.0980488,41.815122 48.0643903,40.6146342 48.0643903,39.3131707 C48.0643903,37.697561 48.0531708,36.2165854 48.0307317,34.8702439 C48.0082927,33.5239025 47.9970732,32.222439 47.9970732,30.9658537 C47.9970732,29.6643903 47.9970732,28.3629268 47.9970732,27.0614634 C47.9970732,25.715122 47.9970732,24.2117073 47.9970732,22.5512195 L47.9970732,11.04 C47.9970732,10.3668293 47.9970732,9.67121952 47.9970732,8.95317074 C47.9970732,8.23512195 48.0195122,7.52829269 48.0643903,6.83268293 C48.1092683,6.13707317 48.1765854,5.50878049 48.2663415,4.94780488 C48.3560976,4.38682927 48.4907317,3.94926829 48.6702439,3.63512195 C49.1639025,2.73756098 49.9268293,2.05317073 50.9590244,1.58195122 C51.9912195,1.11073171 53.0458537,0.807804878 54.1229269,0.673170732 L54.1229269,0 L33.8604878,0 L33.8604878,0.673170732 C34.8926829,0.718048781 35.9248781,0.886341464 36.9570732,1.17804878 C37.9892683,1.4697561 38.9092683,2.22146342 39.7170732,3.43317073 C40.0760976,4.01658537 40.2892683,4.76829268 40.3565854,5.68829269 C40.4239025,6.60829269 40.48,7.49463415 40.5248781,8.34731708 C40.5697561,9.82829269 40.5921951,11.1521951 40.5921951,12.3190244 C40.5921951,13.4858537 40.5921951,14.6302439 40.5921951,15.7521951 C40.5921951,16.8741463 40.5921951,18.0409756 40.5921951,19.2526829 C40.5921951,20.4195122 40.5921951,21.7209756 40.5921951,23.1570732 L14.0019512,23.1570732 C14.0019512,22.7082927 14.0019512,21.8780488 14.0019512,20.6663415 C14.0019512,19.4097561 14.0019512,17.9736585 14.0019512,16.3580488 C14.0019512,14.697561 14.0131707,12.9585366 14.0356098,11.1409756 C14.0580488,9.32341464 14.0917073,7.6292683 14.1365854,6.05853659 C14.1814634,5.02634147 14.4058537,4.17365854 14.8097561,3.50048781 C15.2136585,2.82731707 15.7073171,2.3 16.2907317,1.91853659 C16.8741463,1.53707317 17.5248781,1.25658537 18.2429268,1.07707317 C18.9609756,0.897560976 19.6341463,0.76292683 20.262439,0.673170732 L20.262439,0 L0.20195122,0 L0.20195122,0.673170732 C1.36878049,0.807804878 2.41219512,1.04341463 3.33219512,1.38 C4.25219512,1.71658537 5.02634147,2.26634146 5.65463415,3.02926829 C5.92390244,3.34341464 6.12585366,3.78097561 6.26048781,4.34195122 C6.39512195,4.90292683 6.49609756,5.53121951 6.56341464,6.22682927 C6.63073171,6.92243903 6.66439025,7.67414634 6.66439025,8.48195122 C6.66439025,9.2897561 6.66439025,10.097561 6.66439025,10.9053659 L6.66439025,24.0321951 C6.66439025,25.2439024 6.66439025,26.5453659 6.66439025,27.9365854 C6.66439025,29.2829268 6.65317073,30.5956098 6.63073171,31.8746342 C6.60829269,33.1536586 6.58585366,34.3317073 6.56341464,35.4087805 C6.54097561,36.4858537 6.5297561,37.3385366 6.5297561,37.9668293 C6.5297561,38.6848781 6.50731708,39.4365854 6.46243903,40.2219512 C6.41756098,41.0073171 6.36146342,41.7365854 6.29414634,42.4097561 C6.22682927,43.0829268 6.13707317,43.677561 6.02487805,44.1936586 C5.91268293,44.7097561 5.76682927,45.08 5.58731708,45.3043903 C5.04878049,45.9326829 4.26341464,46.46 3.23121951,46.8863415 C2.19902439,47.3126829 1.12195122,47.6156098 0,47.795122 L0,48.4682927 L19.8585366,48.4682927 L19.8585366,47.795122 C18.9160976,47.7053659 17.9512195,47.4585366 16.9639024,47.0546342 C15.9765854,46.6507317 15.2136585,46.0673171 14.675122,45.3043903 C14.3160976,44.8107317 14.1141463,43.9580488 14.0692683,42.7463415 C14.0243902,41.5346342 14.0019512,40.2780488 14.0019512,38.9765854 L14.0019512,24.5034146 L40.5921951,24.5034146 C40.5921951,24.9521951 40.5921951,25.737561 40.5921951,26.8595122 C40.5921951,27.9365854 40.5921951,29.1931707 40.5921951,30.6292683 C40.5921951,32.0204878 40.5921951,33.5239025 40.5921951,35.1395122 C40.5921951,36.7102439 40.5697561,38.2360976 40.5248781,39.7170732 C40.5248781,40.2556098 40.5136586,40.8165854 40.4912195,41.4 C40.4687805,41.9834147 40.435122,42.5443903 40.3902439,43.0829268 C40.3453659,43.6214634 40.2892683,44.0926829 40.2219512,44.4965854 C40.1546342,44.9004878 40.0760976,45.1697561 39.9863415,45.3043903 C39.6273171,45.8878049 38.8868293,46.415122 37.7648781,46.8863415 C36.6429268,47.357561 35.2517073,47.6604878 33.5912195,47.795122 L33.5912195,48.4682927 L54.257561,48.4682927 Z" id="Path"></path>
            </g>
        </g>
    </g>
</svg>